<?xml version="1.0" encoding="UTF-8" standalone="no"?>
<!DOCTYPE svg PUBLIC "-//W3C//DTD SVG 1.1//EN" "http://www.w3.org/Graphics/SVG/1.1/DTD/svg11.dtd">
<svg width="100%" height="100%" viewBox="0 0 170 200" version="1.1" xmlns="http://www.w3.org/2000/svg" xmlns:xlink="http://www.w3.org/1999/xlink" xml:space="preserve" xmlns:serif="http://www.serif.com/" style="fill-rule:evenodd;clip-rule:evenodd;stroke-linejoin:round;stroke-miterlimit:2;">
    <g transform="matrix(0.496098,6.16298e-33,1.84889e-32,0.671644,0,-15.0771)">
        <path d="M18.36,36.83C18.36,33.158 18.36,28.874 17.136,25.202C16.524,21.53 9.792,21.53 9.18,25.202C8.568,28.874 8.568,32.546 7.956,36.218L7.956,42.95C7.956,44.174 7.956,45.398 8.568,46.622C9.18,47.234 9.792,47.846 10.404,48.458C9.18,47.846 9.18,47.234 9.792,48.458C11.016,50.906 14.688,50.906 15.3,48.458L15.3,47.846C16.524,46.622 16.524,45.398 16.524,43.562C18.36,41.726 18.36,39.278 18.36,36.83Z" style="fill-rule:nonzero;"/>
        <path d="M7.956,87.014C7.956,85.178 5.508,85.178 4.896,87.014C4.284,98.03 1.224,109.046 1.224,120.062C1.224,126.794 11.628,126.794 11.628,120.062C11.628,109.046 9.18,98.03 7.956,87.014Z" style="fill-rule:nonzero;"/>
        <path d="M12.24,157.394C12.852,154.946 9.18,152.498 7.344,155.558C4.896,161.066 3.06,166.574 2.448,172.694C1.836,178.202 0.612,183.71 3.06,188.606C4.284,191.053 7.956,191.053 9.18,188.606C11.628,184.934 11.016,180.649 11.016,176.366C11.016,169.634 11.628,163.514 12.24,157.394Z" style="fill-rule:nonzero;"/>
        <path d="M11.016,241.238C8.568,235.118 6.732,229.61 6.12,223.49C5.508,219.818 0,219.818 0,223.49C0,228.998 0,234.506 0.612,239.402C1.224,244.91 2.448,252.254 6.732,255.925C8.568,257.761 12.852,257.15 13.464,254.089C14.688,249.194 12.852,245.522 11.016,241.238Z" style="fill-rule:nonzero;"/>
        <path d="M48.348,287.138C45.288,284.691 40.392,285.302 36.72,284.078C31.824,282.854 28.152,279.794 26.316,274.898C25.092,271.837 20.196,274.286 21.42,276.734C23.256,282.854 26.928,287.137 31.824,290.198C36.72,292.646 44.064,295.706 48.96,292.034C50.184,290.81 50.184,288.362 48.348,287.138Z" style="fill-rule:nonzero;"/>
        <path d="M108.936,293.87C101.592,287.138 89.352,288.974 80.172,289.586C75.888,289.586 75.888,295.706 80.172,296.318C84.456,296.318 88.74,296.929 93.024,297.542C97.308,298.155 102.204,299.99 106.488,299.378C108.936,299.378 111.384,296.318 108.936,293.87Z" style="fill-rule:nonzero;"/>
        <path d="M175.031,292.646C164.627,286.526 149.94,288.362 138.924,292.646C134.64,294.482 136.476,300.602 140.76,299.377C151.776,296.929 162.18,299.377 173.196,299.989C177.48,300.603 178.703,294.482 175.031,292.646Z" style="fill-rule:nonzero;"/>
        <path d="M236.844,289.586C227.053,286.526 216.035,288.362 206.244,288.974C201.348,288.974 201.348,296.319 206.244,296.319C216.035,296.93 227.664,298.766 236.844,295.707C240.516,295.094 240.516,290.81 236.844,289.586Z" style="fill-rule:nonzero;"/>
        <path d="M294.984,287.138C290.699,282.855 285.191,284.691 279.683,285.302C273.564,285.914 267.443,287.138 261.324,288.974C257.039,290.81 258.263,297.542 263.16,296.319C269.279,294.483 275.4,293.871 281.519,293.871C286.415,293.871 290.699,295.095 294.371,291.423C296.207,290.81 296.207,288.362 294.984,287.138Z" style="fill-rule:nonzero;"/>
        <path d="M337.824,282.854C323.748,279.181 313.955,267.553 300.492,262.045C295.596,260.209 293.148,267.553 296.82,270.613C306,276.733 313.955,285.301 323.748,291.421C320.076,294.482 316.404,297.541 312.119,300.602C307.836,303.662 301.103,304.885 298.043,309.169C296.207,311.617 295.596,315.289 298.043,317.737C309.672,328.141 332.928,303.049 340.272,295.092C344.557,290.81 342.721,284.078 337.824,282.854Z" style="fill-rule:nonzero;"/>
    </g>
</svg>
