<?xml version="1.0" encoding="UTF-8" standalone="no"?><!DOCTYPE svg PUBLIC "-//W3C//DTD SVG 1.1//EN" "http://www.w3.org/Graphics/SVG/1.1/DTD/svg11.dtd"><svg width="100%" height="100%" viewBox="0 0 415 415" version="1.1" xmlns="http://www.w3.org/2000/svg" xmlns:xlink="http://www.w3.org/1999/xlink" xml:space="preserve" xmlns:serif="http://www.serif.com/" style="fill-rule:evenodd;clip-rule:evenodd;stroke-linejoin:round;stroke-miterlimit:2;"><path id="t" d="M214.202,381.4l21.689,0l-17.547,12.834l6.702,20.766l-17.546,-12.834l-17.546,12.834l6.702,-20.766l-17.547,-12.834l21.689,0l6.702,-20.766l6.702,20.766Zm65.306,9.442l6.703,-20.766l-17.547,-12.834l21.689,0l6.702,-20.766l6.702,20.766l21.688,0l-17.546,12.834l6.702,20.766l-17.546,-12.834l-17.547,12.834Zm-179.109,0l6.702,-20.766l-17.546,-12.834l21.688,0l6.702,-20.766l6.702,20.766l21.689,0l-17.547,12.834l6.703,20.766l-17.547,-12.834l-17.546,12.834Zm244.668,-66l6.702,-20.766l-17.546,-12.835l21.688,0l6.702,-20.766l6.702,20.766l21.689,0l-17.546,12.835l6.702,20.766l-17.547,-12.835l-17.546,12.835Zm-285.978,-33.601l21.688,0l-17.546,12.835l6.702,20.766l-17.546,-12.835l-17.547,12.835l6.702,-20.766l-17.546,-12.835l21.689,0l6.702,-20.766l6.702,20.766Zm309.974,-56.558l6.702,-20.766l-17.546,-12.834l21.688,0l6.702,-20.766l6.703,20.766l21.688,0l-17.546,12.834l6.702,20.766l-17.547,-12.834l-17.546,12.834Zm-333.97,-33.6l21.688,0l-17.546,12.834l6.702,20.766l-17.546,-12.834l-17.547,12.834l6.702,-20.766l-17.546,-12.834l21.688,0l6.703,-20.766l6.702,20.766Zm-0.253,-56.558l6.702,-20.766l-17.546,-12.835l21.689,0l6.702,-20.766l6.702,20.766l21.688,0l-17.546,12.835l6.702,20.766l-17.546,-12.835l-17.547,12.835Zm334.475,-33.601l21.689,0l-17.546,12.835l6.702,20.766l-17.547,-12.835l-17.546,12.835l6.702,-20.766l-17.546,-12.835l21.688,0l6.702,-20.766l6.702,20.766Zm-244.668,-66l21.689,0l-17.547,12.834l6.703,20.766l-17.547,-12.834l-17.546,12.834l6.702,-20.766l-17.546,-12.834l21.688,0l6.702,-20.766l6.702,20.766Zm179.11,0l21.688,0l-17.546,12.834l6.702,20.766l-17.546,-12.834l-17.547,12.834l6.703,-20.766l-17.547,-12.834l21.689,0l6.702,-20.766l6.702,20.766Zm-89.555,-24.158l21.689,0l-17.547,12.834l6.702,20.766l-17.546,-12.834l-17.546,12.834l6.702,-20.766l-17.547,-12.834l21.689,0l6.702,-20.766l6.702,20.766Z" style="fill:#fd9d00;fill-rule:nonzero;"/></svg>